<?xml version="1.0" encoding="utf-8"?>
<!-- Generator: Adobe Illustrator 19.0.0, SVG Export Plug-In . SVG Version: 6.00 Build 0)  -->
<svg version="1.1" id="Layer_1" xmlns="http://www.w3.org/2000/svg" xmlns:xlink="http://www.w3.org/1999/xlink" x="0px" y="0px"
	 width="1400px" height="980px" viewBox="0 0 1400 980" style="enable-background:new 0 0 1400 980;" xml:space="preserve">
<style type="text/css">
	.st0{clip-path:url(#XMLID_323_);}
	.st1{fill:#ECDCCC;}
	.st2{fill:#FFFFFF;}
	.st3{fill:#BABAB8;}
	.st4{fill:#DDD0C5;}
	.st5{fill:#BAACA2;}
	.st6{fill:#FCEDDE;}
	.st7{fill:#19334C;}
	.st8{fill:#1F3E5D;}
	.st9{fill:url(#XMLID_324_);}
	.st10{fill:#6D465B;}
	.st11{fill:#FFEEC6;}
	.st12{fill:#EDCEB0;}
	.st13{fill:url(#XMLID_327_);}
	.st14{fill:url(#XMLID_328_);}
	.st15{fill:url(#XMLID_333_);}
	.st16{fill:url(#XMLID_366_);}
	.st17{fill:#C9873F;}
	.st18{fill:url(#XMLID_376_);}
	.st19{fill:url(#XMLID_377_);}
	.st20{fill:url(#XMLID_378_);}
	.st21{fill:url(#XMLID_379_);}
	.st22{fill:url(#XMLID_380_);}
	.st23{fill:url(#XMLID_381_);}
	.st24{fill:url(#XMLID_382_);}
	.st25{opacity:0.2;}
	.st26{fill:#442233;}
	.st27{fill:url(#XMLID_383_);}
	.st28{fill:#775303;}
	.st29{fill:url(#XMLID_384_);}
	.st30{fill:#E99767;}
	.st31{fill:#C3452E;}
	.st32{fill:#A6938F;}
	.st33{fill:#CBC6C3;}
	.st34{fill:#7A798B;}
	.st35{fill:#5C5A67;}
	.st36{fill:#9392A4;}
	.st37{fill:#B4B6C2;}
	.st38{fill:#A9A7B5;}
	.st39{fill:#C97E59;}
	.st40{fill:#966B00;}
	.st41{fill:#BC3B31;}
	.st42{fill:#DB645E;}
	.st43{fill:#9E99AF;}
	.st44{fill:#6D6C7A;}
	.st45{fill:#BF8911;}
	.st46{fill:url(#XMLID_385_);}
	.st47{opacity:0.2;fill:#442233;}
	.st48{fill:#1D4356;}
	.st49{fill:#E5604E;}
	.st50{fill:#F7BC9F;}
	.st51{fill:url(#XMLID_386_);}
	.st52{fill:#9B2A1B;}
	.st53{fill:url(#XMLID_387_);}
	.st54{fill:#3F788E;}
	.st55{fill:#5B344A;}
	.st56{fill:#DDC4AF;}
	.st57{fill:#CC961D;}
	.st58{fill:#F9ED32;}
	.st59{fill:#B29986;}
</style>
<g id="XMLID_134_">
	<defs>
		<rect id="XMLID_127_" width="1400" height="980"/>
	</defs>
	<clipPath id="XMLID_323_">
		<use xlink:href="#XMLID_127_"  style="overflow:visible;"/>
	</clipPath>
	<g id="XMLID_92_" class="st0">
		<rect id="XMLID_77_" class="st1" width="1400" height="980"/>
		<rect id="XMLID_105_" x="1276.2" class="st2" width="311.7" height="980"/>
		<g id="XMLID_79_">
			<rect id="XMLID_66_" x="573.4" y="-53" class="st3" width="22.6" height="696.4"/>
			<rect id="XMLID_68_" x="938.9" y="-53" class="st3" width="22.6" height="696.4"/>
			<g id="XMLID_81_">
				<rect id="XMLID_84_" x="936.4" y="-53" class="st2" width="5" height="696.4"/>
			</g>
			<g id="XMLID_86_">
				<rect id="XMLID_89_" x="568.4" y="-53" class="st2" width="5" height="696.4"/>
			</g>
			<rect id="XMLID_67_" x="269.1" y="347.7" class="st3" width="1037.5" height="22.6"/>
			<g id="XMLID_90_">
				<rect id="XMLID_91_" x="268.1" y="345.2" class="st2" width="305.4" height="5"/>
			</g>
			<g id="XMLID_100_">
				<rect id="XMLID_102_" x="596.1" y="345.2" class="st2" width="345.4" height="5"/>
			</g>
			<g id="XMLID_103_">
				<rect id="XMLID_104_" x="961.6" y="345.2" class="st2" width="345.4" height="5"/>
			</g>
		</g>
		<rect id="XMLID_174_" class="st3" width="311.7" height="980"/>
		<rect id="XMLID_73_" x="1294.5" class="st3" width="311.7" height="980"/>
		<g id="XMLID_128_">
			<g id="XMLID_129_">
				<path id="XMLID_365_" class="st4" d="M305,642.9v337.4c0,16.2-9.6,29.3-21.5,29.3h-268c-11.9,0-21.5-13.1-21.5-29.3V642.9H305z"
					/>
				<rect id="XMLID_362_" x="-36.5" y="609.2" class="st2" width="372.1" height="44.1"/>
				<g id="XMLID_341_">
					<rect id="XMLID_359_" x="7.1" y="676.2" class="st5" width="284.8" height="151.8"/>
					<rect id="XMLID_356_" x="13.3" y="684.5" class="st4" width="272.6" height="135"/>
					<rect id="XMLID_353_" x="19.4" y="692.9" class="st6" width="260.3" height="118.3"/>
					<g id="XMLID_342_">
						<g id="XMLID_346_">
							<path id="XMLID_350_" class="st5" d="M175.5,752.1c0,8.1,6.7,14.6,14.9,14.6c8.2,0,14.9-6.5,14.9-14.6
								c0-8-6.7-14.6-14.9-14.6C182.1,737.5,175.5,744,175.5,752.1z"/>
							<path id="XMLID_347_" class="st5" d="M93.6,752.1c0,8.1,6,14.6,13.4,14.6c7.4,0,13.4-6.5,13.4-14.6c0-8-6-14.6-13.4-14.6
								C99.6,737.5,93.6,744,93.6,752.1z"/>
						</g>
						<path id="XMLID_343_" class="st2" d="M101.9,752c0,8.4,5,15.3,11.2,15.3H186c6.2,0,11.2-6.8,11.2-15.3l0,0
							c0-8.4-5-15.2-11.2-15.2h-72.9C106.9,736.8,101.9,743.6,101.9,752L101.9,752z"/>
					</g>
				</g>
				<g id="XMLID_130_">
					<rect id="XMLID_338_" x="7.1" y="827.9" class="st5" width="284.8" height="151.8"/>
					<rect id="XMLID_335_" x="13.3" y="836.3" class="st4" width="272.6" height="135"/>
					<rect id="XMLID_329_" x="19.4" y="844.7" class="st6" width="260.3" height="118.3"/>
					<g id="XMLID_132_">
						<g id="XMLID_185_">
							<path id="XMLID_325_" class="st5" d="M175.5,903.8c0,8.1,6.7,14.6,14.9,14.6c8.2,0,14.9-6.5,14.9-14.6
								c0-8-6.7-14.6-14.9-14.6C182.1,889.2,175.5,895.8,175.5,903.8z"/>
							<path id="XMLID_321_" class="st5" d="M93.6,903.8c0,8.1,6,14.6,13.4,14.6c7.4,0,13.4-6.5,13.4-14.6c0-8-6-14.6-13.4-14.6
								C99.6,889.2,93.6,895.8,93.6,903.8z"/>
						</g>
						<path id="XMLID_133_" class="st2" d="M101.9,903.8c0,8.4,5,15.3,11.2,15.3H186c6.2,0,11.2-6.8,11.2-15.3l0,0
							c0-8.4-5-15.2-11.2-15.2h-72.9C106.9,888.6,101.9,895.4,101.9,903.8L101.9,903.8z"/>
					</g>
				</g>
			</g>
		</g>
		<g id="XMLID_109_">
			<rect id="XMLID_65_" x="-17" y="815" class="st7" width="40" height="194.9"/>
			<rect id="XMLID_114_" x="119.1" y="815" class="st7" width="40" height="194.9"/>
			<rect id="XMLID_64_" y="789" class="st8" width="209.9" height="52"/>
		</g>
		<g id="XMLID_106_">
			<linearGradient id="XMLID_324_" gradientUnits="userSpaceOnUse" x1="145.1182" y1="401" x2="145.1182" y2="653.0317">
				<stop  offset="0" style="stop-color:#FFEEC6"/>
				<stop  offset="0.9947" style="stop-color:#665A83"/>
			</linearGradient>
			<rect id="XMLID_62_" x="139.1" y="382.3" class="st9" width="12" height="349.4"/>
			<polygon id="XMLID_63_" class="st10" points="104.3,789 185.9,789 209.9,696.8 80.3,696.8 			"/>
			<polygon id="XMLID_61_" class="st11" points="247.1,431.5 43.1,431.5 106.1,208.8 184.1,208.8 			"/>
			<path id="XMLID_116_" class="st12" d="M107.7,208.8h-1.6l-63,222.6h120.2C95.8,377.6,92.5,287.5,107.7,208.8z"/>
		</g>
		<g id="XMLID_1_">
			<linearGradient id="XMLID_327_" gradientUnits="userSpaceOnUse" x1="1088.4413" y1="384.158" x2="1102.4413" y2="712.158">
				<stop  offset="0" style="stop-color:#FFE4B4"/>
				<stop  offset="1" style="stop-color:#E3AD66"/>
			</linearGradient>
			<path id="XMLID_56_" class="st13" d="M1327.4,643.1c0.5-60.4-6.3-120.9-20.1-179.7c-3.3-14.1-7.5-28.8-18.1-38.7
				c-11.8-11-29-13.4-45.1-15.4c-89.5-10.7-180.1-21.4-269.5-9.5c-17.2,2.3-34.8,5.6-49.7,14.7c-14.9,9.1-26.6,25-26.2,42.4
				c2,81.6-31,159.9-25.7,241.3c126.4,5.2,253,10.4,379.3,4.7c19.7-0.9,40.2-2.3,57.3-12.1C1326.7,681.1,1327.2,662.8,1327.4,643.1z
				"/>
			<linearGradient id="XMLID_328_" gradientUnits="userSpaceOnUse" x1="1090.7864" y1="439.1003" x2="1102.4215" y2="711.6962">
				<stop  offset="0" style="stop-color:#FFDEA2"/>
				<stop  offset="1" style="stop-color:#E3A656"/>
			</linearGradient>
			<path id="XMLID_82_" class="st14" d="M873.1,698.3c126.4,5.2,253,10.4,379.3,4.7c19.7-0.9,40.2-2.3,57.3-12.1
				c17.1-9.8,17.6-28.2,17.7-47.9c0.5-60.4-6.3-120.9-20.1-179.7c-2.1-8.9-4.5-18-8.7-26c-119.6,96-265,154.7-416.9,157
				C875.6,628.7,870.7,663.2,873.1,698.3z"/>
			<linearGradient id="XMLID_333_" gradientUnits="userSpaceOnUse" x1="647.2986" y1="379.9935" x2="607.2986" y2="697.9935">
				<stop  offset="0" style="stop-color:#FFE4B4"/>
				<stop  offset="1" style="stop-color:#E3AD66"/>
			</linearGradient>
			<path id="XMLID_55_" class="st15" d="M874.1,699.2c-137.2,11-278.4,23.1-414.1-0.1c-57.4-9.8-130-53.6-123.3-111.4
				c6.8-57.8,33-113,72.9-155.3c14.8-15.7,35-25.1,56.5-26.4c131.5-7.6,276.1-19.3,412.8,7c15.2,2.9,26.9,15.1,29.1,30.4
				C920.1,530,905.6,616.9,874.1,699.2z"/>
			<linearGradient id="XMLID_366_" gradientUnits="userSpaceOnUse" x1="648.6412" y1="382.1772" x2="608.8758" y2="698.312">
				<stop  offset="0" style="stop-color:#FFDEA2"/>
				<stop  offset="1" style="stop-color:#E3A656"/>
			</linearGradient>
			<path id="XMLID_83_" class="st16" d="M908,443.5c-2-14.3-12.4-25.9-26.1-29.7c-19.3,36-45.5,66.6-80.8,90.2c-79,52-160,78-250,92
				c-71.4,11-143,15.6-213.5,11.4c9.3,47.9,71.8,83.1,122.5,91.7c135.7,23.1,276.9,11.1,414.1,0.1C905.6,616.9,920.1,530,908,443.5z
				"/>
			<path id="XMLID_78_" class="st17" d="M914.9,509.1c0-1.8-0.1-3.6-0.2-5.4c-0.1-3.5-0.3-6.9-0.4-10.3c-0.2-3.3-0.5-6.5-0.7-9.6
				c-0.3-3.1-0.5-6-0.8-8.8c-0.4-2.8-0.7-5.4-1-7.9c-0.3-2.5-0.6-4.8-0.9-6.9c-0.3-2.1-0.7-4.1-1-5.8c-0.6-3.5-1.1-6.3-1.5-8.2
				c-0.4-1.9-0.6-2.9-0.6-2.9s0.1,1,0.2,2.9c0.1,1.9,0.3,4.7,0.5,8.3c0.1,1.8,0.3,3.8,0.4,5.9c0.1,2.1,0.2,4.5,0.3,6.9
				c0.1,2.5,0.2,5.1,0.3,7.9c0,2.8,0.1,5.7,0.1,8.7c0,3,0.1,6.2,0.1,9.5c-0.1,3.3-0.1,6.7-0.2,10.1c0,1.7,0,3.5-0.1,5.3
				c-0.1,1.8-0.2,3.6-0.3,5.4c-0.2,3.6-0.3,7.4-0.5,11.2c-0.3,3.8-0.6,7.6-0.8,11.5c-0.1,1-0.1,1.9-0.2,2.9c-0.1,1-0.2,2-0.3,2.9
				c-0.2,2-0.4,3.9-0.6,5.9c-0.7,7.9-1.9,15.9-2.9,24c-1.2,8-2.3,16-3.9,23.8c-1.4,7.9-3,15.5-4.5,23c-0.8,3.7-1.7,7.3-2.5,10.9
				c-0.4,1.8-0.8,3.6-1.2,5.3c-0.4,1.7-0.9,3.4-1.3,5.1c-0.9,3.4-1.7,6.7-2.5,9.9c-0.8,3.2-1.7,6.2-2.5,9.2
				c-0.8,2.9-1.6,5.8-2.3,8.4c-0.8,2.7-1.5,5.2-2.2,7.6c-0.7,2.4-1.4,4.6-1.9,6.7c-0.6,2.1-1.2,3.9-1.7,5.6
				c-1.1,3.4-1.8,6.1-2.4,7.9c-0.5,1.8-0.8,2.8-0.8,2.8s0.4-0.9,1.2-2.7c0.8-1.8,1.9-4.3,3.3-7.6c0.7-1.6,1.5-3.5,2.3-5.4
				c0.8-2,1.6-4.2,2.5-6.5c0.9-2.3,1.9-4.8,2.9-7.4c1-2.6,1.9-5.4,2.9-8.3c1-2.9,2.1-5.9,3.1-9c1-3.2,2-6.4,3-9.8
				c0.5-1.7,1-3.4,1.6-5.1c0.5-1.7,1-3.5,1.5-5.3c1-3.6,2-7.2,2.9-10.9c0.9-3.7,1.8-7.5,2.7-11.4c0.4-1.9,0.9-3.9,1.3-5.8
				c0.4-2,0.8-3.9,1.1-5.9c1.6-7.9,2.9-16,4.2-24.1c1-8.1,2.1-16.3,2.7-24.3c0.8-8,1-16,1.4-23.7c0.1-3.8,0.1-7.6,0.1-11.3
				C914.9,512.7,914.9,510.9,914.9,509.1z"/>
			<linearGradient id="XMLID_376_" gradientUnits="userSpaceOnUse" x1="789.336" y1="843.8545" x2="789.336" y2="979.0013">
				<stop  offset="0" style="stop-color:#FFDEA2"/>
				<stop  offset="1" style="stop-color:#E3A656"/>
			</linearGradient>
			<rect id="XMLID_60_" x="146.6" y="832.1" class="st18" width="1285.4" height="172.3"/>
			<linearGradient id="XMLID_377_" gradientUnits="userSpaceOnUse" x1="792.9292" y1="730.4068" x2="783.9954" y2="894.194">
				<stop  offset="0" style="stop-color:#FFDEA2"/>
				<stop  offset="1" style="stop-color:#E3A656"/>
			</linearGradient>
			<path id="XMLID_59_" class="st19" d="M1446.4,862.2H163.9c-21.1,0-38.2-17.1-38.4-38.2c-0.4-41.7,17-84.2,46.6-113.6
				c39.1-38.8,106.8-28.1,161.9-29c179.6-2.8,359.3,5.4,538.7,14.4c139.9,7,277.2-8.4,417.2-2c42.2,1.9,87.3,6,119.9,32.8
				C1449.1,759,1456.1,812.2,1446.4,862.2z"/>
			<linearGradient id="XMLID_378_" gradientUnits="userSpaceOnUse" x1="1315.1626" y1="698.0367" x2="1316.3816" y2="758.988">
				<stop  offset="0" style="stop-color:#FFDEA2"/>
				<stop  offset="1" style="stop-color:#E3A656"/>
			</linearGradient>
			<path id="XMLID_58_" class="st20" d="M1346.8,696.3c19.5-7.1,42-5.8,60.6,3.5s33,26.6,39,46.5c-86.7,10-174,10.5-260.5-0.9
				C1237.3,723,1294.1,715.5,1346.8,696.3z"/>
			<linearGradient id="XMLID_379_" gradientUnits="userSpaceOnUse" x1="1138.8611" y1="677.1335" x2="1465.0728" y2="677.1335">
				<stop  offset="0" style="stop-color:#FFE4B4"/>
				<stop  offset="1" style="stop-color:#E3AD66"/>
			</linearGradient>
			<path id="XMLID_57_" class="st21" d="M1378.2,600.4c16.9-3.7,34.6-6.3,51.4-2c16.8,4.3,32.4,17.1,35.1,34.2
				c3.3,20.7-13.1,40.1-32.2,48.9c-19,8.8-40.5,10.1-61,14.4c-39.4,8.4-75.3,28.4-112.7,43.5c-37.4,15.1-79.3,25.4-117.8,13.6
				c-12.9-4,35.1-47.3,37.7-49.7c18.5-17.1,38.6-32.5,59.9-46C1281.4,630.3,1328.9,611.1,1378.2,600.4z"/>
			<linearGradient id="XMLID_380_" gradientUnits="userSpaceOnUse" x1="1139.6473" y1="677.7189" x2="1465.0728" y2="677.7189">
				<stop  offset="0" style="stop-color:#FFDEA2"/>
				<stop  offset="1" style="stop-color:#E3A656"/>
			</linearGradient>
			<path id="XMLID_93_" class="st22" d="M1464.7,632.6c-2.7-17.1-18.3-29.9-35.1-34.2c-1.6-0.4-3.3-0.7-4.9-1
				c0.1,0.2,0.2,0.4,0.3,0.7c5,10,4,24,1,35c-13,38-56,52-93,61c-66.9,17.4-133.8,18.9-193.4,58.2c0.3,0.3,0.8,0.6,1.4,0.8
				c38.5,11.9,80.4,1.6,117.8-13.6c37.4-15.1,73.2-35.1,112.7-43.5c20.5-4.4,42-5.6,61-14.4C1451.5,672.6,1467.9,653.2,1464.7,632.6
				z"/>
			<linearGradient id="XMLID_381_" gradientUnits="userSpaceOnUse" x1="299.7226" y1="645.2778" x2="295.7226" y2="713.2778">
				<stop  offset="0" style="stop-color:#FFDEA2"/>
				<stop  offset="1" style="stop-color:#E3A656"/>
			</linearGradient>
			<path id="XMLID_54_" class="st23" d="M422.8,710.4H172c-4.6-7.7-2.3-18.1,3.3-25.1c5.7-7,14.1-11.1,22.5-14.3
				c20-7.6,41.5-11,62.8-9.9C317.6,664.1,369.9,689,422.8,710.4z"/>
			<linearGradient id="XMLID_382_" gradientUnits="userSpaceOnUse" x1="400.2129" y1="548.7376" x2="352.2129" y2="692.7376">
				<stop  offset="0" style="stop-color:#FFE4B4"/>
				<stop  offset="1" style="stop-color:#E3AD66"/>
			</linearGradient>
			<path id="XMLID_53_" class="st24" d="M499.2,641.5c-45.3-41.7-101.9-71-162-84.2c-37.8,5.2-77.5,19.9-106.6,44.5
				c-13.6,11.5-26.5,29.5-19.1,45.7c5.1,11.1,17.7,16.2,29.1,20.3c29.9,10.7,59.7,21.3,89.6,32c48.3,17.2,101.2,34.6,149.6,17.6
				c15.8-5.5,31.1-15.6,37.4-31C523.5,670.8,511.5,652.8,499.2,641.5z"/>
			<g id="XMLID_299_" class="st25">
				<g id="XMLID_330_">
					<path id="XMLID_332_" class="st26" d="M715.3,688.4c0,0-15.7-177.6,95.1-285.4c-71.9-7.7-145-7.1-216.3-4
						c-76.4,140.8-27.8,399.4-65.1,463.2c-32.2,55.1-35.2,112.5-33.5,142.2H574c6.9-47.5,21-116.3,47.2-142.2
						C621.3,862.2,627.6,735,715.3,688.4z"/>
					<path id="XMLID_331_" class="st26" d="M991.4,939.8l17.2-4.8v-72.9c250.1,0,235.2-117.1,235.2-117.1
						c5.3-94.5,41.8-113.4,41.8-113.4c12.5-24.9,38-68.4,38.1-68.6c-0.3-3.5-0.7-7-1.1-10.5c-0.4-3.8-0.9-7.5-1.3-11.2
						c-3.3-26.2-8-52.3-14.1-78c0,0,0,0,0,0c-0.2-1-0.5-2-0.7-3c-0.1-0.3-0.1-0.6-0.2-0.8c-0.2-0.8-0.4-1.5-0.6-2.3
						c-0.1-0.3-0.2-0.6-0.2-0.9c-0.2-0.8-0.5-1.7-0.7-2.5c-0.1-0.2-0.1-0.4-0.2-0.6c-0.6-2.1-1.3-4.2-2-6.2
						c-0.1-0.2-0.1-0.4-0.2-0.5c-0.3-0.8-0.6-1.7-0.9-2.5c-0.1-0.2-0.2-0.4-0.2-0.6c-0.4-0.9-0.8-1.8-1.2-2.7c0-0.1-0.1-0.2-0.1-0.2
						c-0.5-1-0.9-2-1.5-3c0,0,0,0,0,0v0c-2.4-4.7-5.5-9-9.4-12.6c-11.8-11-29-13.4-45.1-15.4c-32.1-3.8-64.4-7.7-96.6-10.5
						c-11.1,86.1-36.1,235-78.2,266.6c-60.1,45.1-113.6,102.2-113.6,102.2v94.5l6,78h6.9c0,0-1.4,29.5-44.9,64.2h85.8
						C1013.5,966.2,991.4,939.8,991.4,939.8z"/>
				</g>
			</g>
			<linearGradient id="XMLID_383_" gradientUnits="userSpaceOnUse" x1="386.3303" y1="591.9927" x2="351.4904" y2="696.5124">
				<stop  offset="0" style="stop-color:#FFDEA2"/>
				<stop  offset="1" style="stop-color:#E3A656"/>
			</linearGradient>
			<path id="XMLID_87_" class="st27" d="M291,668c-30-5.4-56.7-16.9-81.7-31.9c-0.2,3.8,0.4,7.6,2.1,11.4
				c5.1,11.1,17.7,16.2,29.1,20.3c29.9,10.7,59.7,21.3,89.6,32c48.3,17.2,101.2,34.6,149.6,17.6c15.8-5.5,31.1-15.6,37.4-31
				c4.5-10.9-0.2-23.1-7.6-33.3C439.7,675.1,366.3,681.2,291,668z"/>
		</g>
		<g id="XMLID_30_">
			<path id="XMLID_4_" class="st28" d="M1016.2,188.7c-0.7,6.4,0.7,12.9,2.3,19.2c7.1,27,18,53,32.3,77
				c5.7-18.9,10.8-37.9,15.2-57.1c2.3-10.1,4.5-20.6,2.1-30.7C1062.9,175.3,1020,155.9,1016.2,188.7z"/>
			<linearGradient id="XMLID_384_" gradientUnits="userSpaceOnUse" x1="1016.0505" y1="279.6296" x2="1037.9691" y2="279.6296">
				<stop  offset="0" style="stop-color:#DB6867"/>
				<stop  offset="1" style="stop-color:#E99767"/>
			</linearGradient>
			<path id="XMLID_7_" class="st29" d="M1036.6,290.4c-2.9-0.7-5.8-0.4-8.8-0.3s-6-0.2-8.5-1.7c-2.5-1.6-4.1-4.9-2.9-7.5
				c0.9-2,3-3.2,5-4.1c5.3-2.6,10.5-5.3,15.8-7.9C1038.4,275.9,1038.2,283.4,1036.6,290.4z"/>
			<g id="XMLID_276_">
				<path id="XMLID_297_" class="st30" d="M921.9,925c-0.3,9.4-3.3,18.8-8.4,26.7c-11.5,17.9-36.3,22.7-56.7,28.7
					c-11.7,3.4-20.8,16.4-17.9,28.2c18.6,4.8,39.1,3.2,57.8-1.3c12.7-13.4,25-30.4,35.1-45.9c0.3,12,0.5,24.3-1.5,36.2
					c2.1,0.1,4.1,0.6,5.7-0.8c0.6-12.7,16-23.4,14.8-36.1c-0.7-7.4-6.8-12.9-10.4-19.4c-3.9-7.1-4.8-15.8-2.4-23.5
					C933.3,918.4,925.5,922.1,921.9,925z"/>
				<g id="XMLID_278_">
					<path id="XMLID_289_" class="st31" d="M923,963.1c-12,9.4-25.3,20.8-39.5,26.2c-5.7-5.1-12.6-8.8-20-10.8
						c-2.3,0.6-4.6,1.3-6.8,1.9c-11.7,3.4-20.8,16.4-17.9,28.2c18.6,4.8,39.1,3.2,57.8-1.3c12.7-13.4,25-30.4,35.1-45.9
						c0.3,12,0.5,24.3-1.5,36.2c2.1,0.1,4.1,0.6,5.7-0.8c0.6-12.7,16-23.4,14.8-36.1c-0.4-4.4-2.7-8.1-5.3-11.8
						C937.4,952.5,929.9,957.7,923,963.1z"/>
				</g>
			</g>
			<path id="XMLID_28_" class="st32" d="M1113.1,735.1c-6.4,6.5-15.7,9-24.6,11.1c-48.4,11.2-97.7,18.8-147.2,22.9
				c3.3,54.9,5.2,108.9,6.8,163.9c-3.5,4.5-9.3,6.8-15,7.3s-12.4-1.3-18-2.4c-10.9-49.6-23.3-98.9-37-147.8
				c-12.4-44.2,37.3-92.1,81.5-104.5c31.4-8.8,64.8-3.4,97,2.1c13.5,2.3,27.4,4.8,38.8,12.4C1106.8,707.5,1116.5,721.8,1113.1,735.1
				z"/>
			<g id="XMLID_27_">
				<path id="XMLID_26_" class="st30" d="M772.3,870.4c-6.2,7.1-14.4,12.5-23.3,15.5c-20.2,6.6-42.6-5.2-62.1-13.5
					c-11.2-4.7-26.4-0.3-31.7,10.6c11.4,15.5,28.4,27.1,45.7,35.4c18.3-2.4,38.6-7.9,56.2-13.5c-7.4,9.5-14.9,19.2-23.9,27.2
					c1.6,1.4,2.8,3.1,4.9,3c8.5-9.5,27.1-8.1,34.2-18.8c4.1-6.2,2.9-14.3,4.2-21.7c1.4-8,6.2-15.3,12.9-19.8
					C785.3,872.4,777,870.3,772.3,870.4z"/>
				<g id="XMLID_280_">
					<path id="XMLID_291_" class="st31" d="M749.2,900.7c-15.2-0.3-32.8,0.3-47.2-4.5c-1.2-7.6-4.3-14.8-8.7-21
						c-2.2-0.9-4.3-1.9-6.5-2.8c-11.2-4.7-26.4-0.3-31.7,10.6c11.4,15.5,28.4,27.1,45.7,35.4c18.3-2.4,38.6-7.9,56.2-13.5
						c-7.4,9.5-14.9,19.2-23.9,27.2c1.6,1.4,2.8,3.1,4.9,3c8.5-9.5,27.1-8.1,34.2-18.8c2.4-3.7,3-8,3.3-12.5
						C767.1,901.5,758,900.8,749.2,900.7z"/>
				</g>
			</g>
			<path id="XMLID_25_" class="st33" d="M1214.2,693.1c-4.4,32.8-30.9,61.6-63.2,68.7c-38.5,8.5-82.9-10.7-118.9-22.7
				c-16.7-5.6-33.5-11.1-50.7-15.3c-5.3-1.3-43-12-46.3-6.8c-39.3,61.6-92.3,126.8-147.1,175.2c-10.1-2.5-20-8-23.4-17.8
				c36-60.3,67.1-123.6,92.9-189c8.3-21,16.1-42.5,28.8-61.2c68.2-4.4,137.1-4.6,205.4-0.8c25,1.4,50.6,3.5,73.4,13.9
				S1217.5,668.3,1214.2,693.1z"/>
			<g id="XMLID_240_">
				<path id="XMLID_261_" class="st32" d="M1165,637.3c-13.6-6.2-28.1-9.4-42.9-11.3c10.5,16.4,20.3,33.3,28.9,50.9
					c5.7,11.6,30.5,43.1,24.1,54.7c-15,27.5-67.4,15.9-90.9,10.3c-26.9-6.4-53.3-14.5-79.6-22.7c-12.8-4-58.5-10-61.1-24.5
					c-1.9-10.7-2.6-21.7-4.7-32.3c-1.4,4.5-5.8,35.9-2.1,38.6c-13.8-10.3-18.8-33.6-25.7-49c1.9,17.1,15,32.7,10.1,49
					c-7.5,25-32.7,59.5-49.5,79.5c-30.4,36.5-63,72.1-96.5,106.3c3.9,2.5,8.4,4.2,13,5.3c54.8-48.4,107.8-113.6,147.1-175.2
					c3.3-5.2,41,5.4,46.3,6.8c17.1,4.2,33.9,9.8,50.7,15.3c36,12,80.4,31.2,118.9,22.7c32.4-7.1,58.8-35.9,63.2-68.7
					C1217.5,668.3,1187.8,647.7,1165,637.3z"/>
			</g>
			<path id="XMLID_15_" class="st34" d="M1041.9,540.3c-0.8,26-0.7,52,0.3,78c15.5,5.8,32.5,12.4,48,18.2
				c49.6,18.5,82.3,67.4,118.8,105.7c6.6-1.4,9.7-6.2,11.7-12.6c2-6.4,3.4-13.5,8.3-18.1c4.2-3.9,10.7-5.5,13.5-10.5
				c3.3-6-0.3-13.4-3.9-19.2c-5.3-8.6-10.5-17.3-15.8-25.9c-7.2-85.6,1.7-150,13.3-223.5c1.8-11.2-1.6-23.6-4.8-34.5
				c-3.2-10.9-9.4-21.3-19-27.3c-10-6.2-22.8-6.9-34.3-4c-11.5,2.9-21.8,9.2-31.3,16.2c-37.1,27.1-64.2,65.5-88.4,104.5
				C1048.5,503.1,1042.5,521.8,1041.9,540.3z"/>
			<path id="XMLID_23_" class="st35" d="M1154.4,631.6c19.8,21.9,38.9,44.5,57.2,67.7c1.3-7.6-3.7-15.9-8.3-22.2
				c-4.5-6.3-10.4-11.5-15.6-17.2C1177.6,648.8,1167.1,639.9,1154.4,631.6z"/>
			<path id="XMLID_24_" class="st35" d="M1164.9,497.2c3.2-23.1,9.8-46,22.4-65.7c-3.8,9.4-3.1,19.9-2.9,30.1
				c0.4,32.2-3.6,75.6-21.3,103.2C1157,546.2,1162.2,516.4,1164.9,497.2z"/>
			<path id="XMLID_14_" class="st36" d="M996.4,570.8c-16.4,19.7-39.1,35.4-64.5,38c13.6,14.4,36.6,14.8,55.8,9.8
				s37.4-14.4,57.2-16.1c1.7-25.8,1.6-51.7-0.1-77.5c-0.3-4.4-1.2-20.1-8.4-18.9c-5.6,0.9-10.3,16.9-12.6,21.4
				C1016,542.7,1007.4,557.7,996.4,570.8z"/>
			<path id="XMLID_12_" class="st36" d="M1182.2,408.9c-54.1,58.7-102.7,120.9-141,190.9c-9.9-41.2-16.8-80.8-18.1-126.1
				c9.4-30.9,25.4-59.7,46.7-84c9.9-11.4,25.6-15.6,40.2-19.4s30.6-4.1,44.4,2.1C1168,378.5,1181.8,393.8,1182.2,408.9z"/>
			<path id="XMLID_13_" class="st37" d="M1136.1,382c-54.2,66.6-87.4,149.5-93.8,235.1c-12.3-62-4.4-127.8,22-185.1
				c10.5-22.9,27.4-43.5,49.2-56.1c3.8-2.2,7.9-4.2,12.3-4.1C1130.2,371.9,1135.7,377.7,1136.1,382z"/>
			<path id="XMLID_11_" class="st38" d="M1118.9,389.5c-25.1,16.4-46.6,37.7-63,62.8c1.4-17.6,2.4-33.1,3.7-50.7
				c-8.4-0.1-17.3,2.3-25.1,5.5c3.5-11.6,13.7-19.8,23.7-26.7c10-6.9,20.8-13.7,26.5-24.4c3.5-6.5,13.4-7.8,20.3-5.5
				c6.9,2.3,12.1,8.7,14,15.8S1121.6,382.7,1118.9,389.5z"/>
			<path id="XMLID_9_" class="st39" d="M1066.6,336.8c8.7,9.7,14.5,22,16.3,34.9c9.2-14.3,19.1-27.9,28.3-42.2
				C1096.8,327.9,1080,331.2,1066.6,336.8z"/>
			<path id="XMLID_2_" class="st30" d="M1097,347.5c-21.5,1.8-41.8-0.3-62.5-6.5c-2.6-48.3-0.3-96.9,6.9-144.7
				c23.9-9.1,53.4-3.4,71.6,14.6s26,45.1,22.8,70.5C1132.6,306.7,1115.4,329.8,1097,347.5z"/>
			<path id="XMLID_5_" class="st40" d="M1066.3,242.3c-3.8-4.7-9.4-8-15.4-9.1c-6-1.1-12.3,0.1-17.6,3.2c0.1,2.4,3.2,3.9,5.6,3.9
				c2.4,0,4.6-1,6.9-1.7C1052.7,236.6,1060.4,238.2,1066.3,242.3z"/>
			<path id="XMLID_6_" class="st26" d="M1043.7,251.1c-5.8,0.5-11.8-1.1-16.7-4.4c4.6,4.5,9.7,8.1,15.7,10.5
				c-0.2,5.9,0.6,12.2,0.4,18.1c-0.1,2.6,0.1,5.8,2.5,7c1.7,0.8,3.7,0.1,5-1.2s1.9-3.2,2.3-5c1.7-6.9,1.3-14.3-1.3-21
				c-0.6-1.6-1.4-3.2-2.8-4.3C1047.5,249.8,1045.4,251,1043.7,251.1z"/>
			<path id="XMLID_8_" class="st41" d="M1054.7,316.4c-7-1.4-14-2.8-20.9-4.3c-0.7-2.1-0.9-4.9-0.7-7.2
				C1040.7,307.4,1048.7,310.9,1054.7,316.4z"/>
			<path id="XMLID_10_" class="st42" d="M1054.7,316.4l-20.9-4.3c0,0-5.1,14.8,4.3,12.5C1047.3,322.3,1054.7,316.4,1054.7,316.4z"/>
			<path id="XMLID_16_" class="st36" d="M1229.5,386.2c11.9,4.3,19,17,20.3,29.6c1.3,12.5-2.1,25-5.4,37.2
				c-14.1,51.2-28.2,102.4-42.4,153.6c-12.3,44.7-50.8,43.8-89.6,42c-33.3-1.5-67-5.6-98.3-17.6c2.4-12.7,3-26.5,2.2-39.3
				c44.5,10.3,93.3,7.6,136.8-6.4c12.1-36.1,21.8-73.4,24-111.4c0.7-12.9,0.5-25.8,2.2-38.6s5.7-25.6,13.8-35.6
				C1201.3,389.7,1217.3,381.8,1229.5,386.2z"/>
			<path id="XMLID_22_" class="st39" d="M950.6,594.5c-0.3,1.1-0.5,2.2,0,3.2c0.3,0.7,1,1.1,1.6,1.5c2.8,1.5,6.4,1.1,9.3-0.2
				c2.9-1.3,5.3-3.6,7.5-5.9c4.9-5.2,10.9-12.7,10-20.3C964.2,569.8,954.1,580.9,950.6,594.5z"/>
			<path id="XMLID_21_" class="st2" d="M1046.5,551.9c-36.4,16.1-72.3,33.7-107.3,52.6c37.1-15.6,74.7-31.6,111.7-47.3
				C1049.4,555.4,1047.9,553.9,1046.5,551.9z"/>
			<path id="XMLID_17_" class="st30" d="M1025.7,599c-5.1-1.5-10.3-2.9-15.4-4.4c-4.1-8.7-11.3-18-18.8-24c0,0-10.8-1.5-17-1
				s-12.5,2.3-16.9,6.6c-0.8,0.8-1.5,1.7-1.8,2.7c-0.9,3.4,2.9,6,6,7.5c-2.4,1.5-4.3,4.9-3.8,7.7s2.9,5.2,5.7,5.7
				c-2.3,1.3-2.6,5.1-1.1,7.3s4,3.4,6.4,4.5c-1.8,0.8-2.9,3.2-2.2,5s2.4,3.1,4.1,4c11.9,6.5,27.1,1.3,39.9,5.7c4.3,1.5,8.3,4,12.8,4
				c3.3-10,4.3-20.8,3-31.3C1026.1,599.5,1026.2,598.6,1025.7,599z"/>
			<g id="XMLID_191_">
				<path id="XMLID_18_" class="st43" d="M769.6,620.8c35.4,1.8,71.5,5.8,106.7,10.2c0-2.9-0.5-7-0.5-9.9
					c-34.9-11.7-71.4-18.8-108.1-21C768.4,606.8,768.9,614.2,769.6,620.8z"/>
				<polygon id="XMLID_19_" class="st44" points="876.3,631 994.3,635.7 994.3,624.3 875.8,621.1 				"/>
				<path id="XMLID_20_" class="st2" d="M767.7,600.2c0,0,170.5,6.9,226.6,24.2l-118.5-3.2L767.7,600.2z"/>
			</g>
			<path id="XMLID_3_" class="st40" d="M1243,395.7c-8.7-8.3-23.1-7-33.7-1.3c-10.5,5.7-18.6,15-28,22.6c-9.3,7.5-21.3,13.6-33,11.1
				c-11.2-2.4-19.5-10.5-26.5-19.5c6.2,14.8,4.1,32.7-5.3,45.7c-6.3,8.7-15.4,15-22.3,23.3s-11.4,22.5-6.4,32.1
				c-6.4-11.5-5.7-26.5,1.8-37.3c6.6-9.5,18.3-17,18.6-28.6c0.2-9.1-7-16.4-12-24c-8.9-13.6-11.3-33.6-6.3-49
				c-11.2,18.3-15.7,41.8-12.1,62.9c-6.1-15.6-4.3-33.2-0.2-49.5c4.1-16.3,10.3-32,13-48.6c3.7-22.9,0.1-47-10.1-67.9
				c-8.4-17.2-21-32-30.6-48.6s-16.5-36.2-11.6-54.7c26.6,2.8,52.6,4.8,79.3,7.6c21.2,2.3,44.4,5.5,58.8,21.2
				c11.5,12.5,14.9,30.8,13.7,47.8c-1.3,17-6.6,33.4-10.3,50c-3.7,16.6-5.8,34.3-0.7,50.5c2.9,9.4,13.3,13.9,22.1,18.3
				c8.8,4.4,18.1,7.8,26.2,13.2S1241.8,386,1243,395.7z"/>
			<path id="XMLID_140_" class="st45" d="M1071,238.3c-8.6-12-19-24.3-22.7-39.3c3.7,5.3,7.2,11.7,13.2,13.9
				c0.3-2.3,0.6-4.2,0.9-6.5c3.3-1.5,5.1,1.7,8.4,2.7c3.2,1,7,0.5,10.3,0.5c6.7,0,14.4-1.8,20.8-0.7c4.5,0.8,7.4,4.5,11.6,5.3
				c7,1.3,2.5-1.6,6.6-5.4c3.5-3.3,4-0.9,8.8,0.3c6.3,1.6,9.9-1.1,16.3-2.2c9.8-1.7,26.7,6.3,30.3-4.2c9.3,5.6,10.7,23.1,7.5,32.6
				c0.1-5.1-2.4-12.6-7.3-14.6c-1.9,8.9-6.7,3.3-12.8,2.4c-5.1-0.8-10.2-0.2-15.3,0.3c-7.7,0.7-10.2-0.2-16.7-1.8
				c-7.3-1.8-3.2,1.7-9.3,3.9c-4.3,1.6-8.7-3.4-12.8-4.7c-6.2-2-14.7-2.4-21.2-2.6c-5.4-0.2-22.8-3.2-19.4,5.3
				c-0.9-0.5-2.8-0.7-3.7-1.3C1067.5,227,1067.9,234.4,1071,238.3z"/>
			<path id="XMLID_139_" class="st45" d="M1132.1,330.8c11.8,8.2,26.1,8.8,37.6,17.1c-12.4-4.3-23.7-8-35.1-14.8
				c-11.1-6.7-18-15.6-27.4-23.9c0.4,12.3,17.1,29.9,28.6,34c-20-3.4-32.3-24.3-38.8-41.5c-5.7-15.1-13-28.8-20.2-43.3
				C1083.6,263.9,1113.6,317.9,1132.1,330.8z"/>
			<path id="XMLID_172_" class="st45" d="M1165.9,398.6c17.8-4.2,46.7-26.7,65.2-14.5c-24.3-21.9-61.1,14.8-88.1,10.3
				c-12.9-2.1-21.9-19.8-29.4-29.2c-9.4-11.9-10.9-24.8-12.1-39.5C1098.9,330,1127.7,407.7,1165.9,398.6z"/>
			<g id="XMLID_239_">
				<path id="XMLID_199_" class="st39" d="M963.7,584.3c0,0,0.4-0.1,1.1-0.4c0.3-0.1,0.8-0.2,1.3-0.3c0.5-0.1,1.1-0.2,1.7-0.3
					c1.2-0.2,2.7-0.3,4.2-0.4c0.8,0,1.6,0,2.4,0c0.8,0,1.6,0.1,2.4,0.1c0.8,0.1,1.6,0.1,2.4,0.2c0.8,0.1,1.6,0.2,2.3,0.2
					c1.5,0.2,2.9,0.3,4.1,0.4c1.2,0.1,2.2,0.2,2.9,0.3c0.7,0.1,1.1,0.1,1.1,0.1s-0.4,0.1-1.1,0.3c-0.4,0.1-0.8,0.2-1.3,0.2
					c-0.5,0.1-1.1,0.2-1.7,0.2c-1.2,0.1-2.7,0.2-4.2,0.2c-0.8,0-1.6,0-2.4-0.1c-0.8,0-1.6-0.1-2.4-0.1c-1.6-0.1-3.2-0.2-4.7-0.3
					c-0.8,0-1.5-0.1-2.2-0.1c-0.7,0-1.3-0.1-1.9-0.1C965.3,584.4,963.7,584.3,963.7,584.3z"/>
				<path id="XMLID_213_" class="st39" d="M964,598.5c0,0,1.4-0.6,3.6-1.2c1.1-0.3,2.4-0.6,3.8-0.8c1.4-0.2,2.9-0.4,4.4-0.5
					c0.8,0,1.5-0.1,2.3-0.1c0.7,0,1.5,0,2.2,0c1.4,0,2.8,0.1,3.9,0.2c2.3,0.2,3.8,0.5,3.8,0.5s-1.5,0.3-3.8,0.6
					c-1.1,0.1-2.4,0.3-3.8,0.4c-1.4,0.1-2.9,0.3-4.4,0.4c-1.5,0.1-3,0.2-4.4,0.3c-1.4,0.1-2.7,0.2-3.8,0.2c-1.1,0-2.1,0.1-2.7,0.1
					C964.4,598.5,964,598.5,964,598.5z"/>
				<path id="XMLID_237_" class="st39" d="M968.5,610.5c0,0,0.9-0.3,2.3-0.6c1.4-0.3,3.2-0.4,5-0.4c1.8,0,3.6,0.2,5,0.4
					c1.4,0.2,2.3,0.6,2.3,0.6s-0.9,0.3-2.3,0.6c-1.4,0.3-3.2,0.4-5,0.4c-1.8,0-3.6-0.2-5-0.4C969.4,610.8,968.5,610.5,968.5,610.5z"
					/>
			</g>
			<g id="XMLID_286_">
				<linearGradient id="XMLID_385_" gradientUnits="userSpaceOnUse" x1="990.0587" y1="600.9113" x2="1027.2211" y2="600.9113">
					<stop  offset="0" style="stop-color:#DB6867"/>
					<stop  offset="1" style="stop-color:#E99767"/>
				</linearGradient>
				<path id="XMLID_290_" class="st46" d="M1026.7,599.1c-0.6,0.4-0.5-0.5-1-0.1c-5.1-1.5-10.3-2.9-15.4-4.4
					c-3.9-8.3-10.6-17.1-17.7-23.1c1.2,7.2,2,14.2,2,21.8c0,10.6-2,20.9-4.4,31.1c7,0.1,14.2-0.2,20.8,2.1c4.3,1.5,8.3,4,12.8,4
					C1026.9,620.3,1028,609.6,1026.7,599.1z"/>
			</g>
			<path id="XMLID_292_" class="st2" d="M1045.5,259.7c-0.1-1.5-2.2-1.5-2.3,0c-0.1,0.9-0.2,1.9,0.1,2.8c0.4,1.1,1.9,1.1,2.2,0
				C1045.7,261.6,1045.6,260.5,1045.5,259.7z"/>
		</g>
		<ellipse id="XMLID_31_" class="st47" cx="535.6" cy="717" rx="114.9" ry="20.2"/>
		<g id="XMLID_52_">
			<path id="XMLID_46_" class="st39" d="M369,431.7c-7.6-7-11.2-17.3-13.3-27.3c-2.4-11.2,3-12.3,8.2-1.9c4.9,9.8,8,15.2,16.5,22.5
				c6.3,5.4,14,17.4,9.4,26C384,461.7,370.7,438.1,369,431.7z"/>
			<path id="XMLID_33_" class="st26" d="M518.8,296.1c14.1,30.2,0.1,70.4-29.7,85.3c11.2,13.7,29.6,18.9,47,21.7
				c36.5,5.8,74.2,4.2,110-4.9c15.6-3.9,17.7-27.7,17.5-43.8c-0.4-23.8-6.6-47.4-17.8-68.4c-3.9-7.2-8.6-14.3-15.5-18.7
				c-5.5-3.4-11.9-4.8-18.3-5.8c-16.4-2.5-33.4-2.6-49.2,2.3C546.9,268.8,526.5,281.4,518.8,296.1z"/>
			<path id="XMLID_50_" class="st30" d="M543.7,987.6c-11.4-9-19.8-19.2-27.9-31.2c0.5-9.1,0.9-18.2,1.4-27.3
				c-3.6-0.2-9.3-2.6-12.9-2.8c-1.3-0.1-3.3-0.6-4.7-0.6c-2.2,22.5-0.9,44.7,5.2,66.5C518.4,997.6,530.7,994.2,543.7,987.6z"/>
			<path id="XMLID_51_" class="st30" d="M515.4,980.1c12.2-16.5,21.4-35.3,27-55.1c6.4,0.2,12.1,0.9,18,3.3
				c-8.5,18-11.7,38-10.4,57.9c0.3,4.2,0.7,8.8-1.6,12.3c-2,3.1-5.7,4.8-9.4,5.4c-6.5,1.3-13.7-0.1-18.9-4.3
				C514.9,995.5,511.4,985.5,515.4,980.1z"/>
			<path id="XMLID_48_" class="st48" d="M499.9,599.9c-17,23.1-46.6,70.2-32.8,100.1c5,10.8,16,17.6,27.1,22.1
				c11.6,4.6,23.9,7.5,34.7,14c-31.8,61-43.7,133.1-31.6,200.8c8.3-0.7,16.4-0.1,24.7-0.8c9.4-39.6,23-79.6,45.4-113.5
				c-14.3,35.9-24.7,72.5-32.5,110.3c8.3,2.5,17.9,4.3,26.1,6.9c36.8-64.1,67.3-132.2,89.4-202.7c14.9-8,28.8-24,31.9-40.6
				c4.5-24-6.7-47.9-17.6-69.7c-7.7-15.6-16.5-32.2-32-39.9c-11.2-5.6-24.1-5.7-36.6-5.7C564.1,581.3,518.9,574.1,499.9,599.9z"/>
			<path id="XMLID_41_" class="st31" d="M651.8,615.7c-51.1-14.9-105.3-18.6-158.1-12.1c11-21.1,24.7-38.7,40.4-56.6
				c-2.4-26.9-7.4-54.5-17.5-79.6c-30-15.1-52.1-46.2-58.8-79.2c4.6-10.7,15.6-17.6,27-20.3c11.4-2.7,23.2-1.8,34.9-1.1
				c11.7,0.7,23.6,1.2,34.8-2.1c31.2-9.2,66.1-4.7,99.3-4c10.6,0.2,20.6,5,27.2,13.3c14.4,18.1,25.2,39.3,30.7,61.6
				c-11.9,9-24.1,16.9-35.9,25.9c-3.3,53.2-10.8,105-20.5,157.4C654,618.1,653.1,616.1,651.8,615.7z"/>
			<path id="XMLID_206_" class="st49" d="M680.3,383c22.8,37,21.3,44,21.2,60c3.4-2.4,6.7-4.8,10-7.3c-5.5-22.3-16.3-43.6-30.7-61.6
				c-6.6-8.3-16.6-13.1-27.2-13.3c-1.5,0-3-0.1-4.6-0.1C659.1,364.2,668.8,364.4,680.3,383z"/>
			<g id="XMLID_177_">
				<path id="XMLID_178_" class="st49" d="M667.7,409C653,383,653,383,653,383s27.3,56.2,5.6,78.6C637,484,602,482.8,602,482.8
					s37.3,14.8,56.6,0c0,0,3.1,72.5-15,130.6c2.7,0.7,5.4,1.5,8.1,2.3c1.4,0.4,2.2,2.5,3.4,3.3c9.8-52.4,17.2-104.2,20.5-157.4
					C675.6,461.6,682.5,435.1,667.7,409z"/>
			</g>
			<g id="XMLID_111_">
				<path id="XMLID_40_" class="st30" d="M610.1,341c-1.4,6.9-1.4,14.1,0.2,21c7.2,3.8,14.7,5.7,22.7,7.1
					c-2.8,12.6-14.7,22.7-27.1,26.1c-12.4,3.4-26.2,0.3-36.6-7.4c-3.6-2.6-6.8-5.9-8.6-9.9c-1.8-4.1-2-8.8-2.2-13.3
					c-0.7-19.3-1.3-39.1,5.5-57.2c1.3-3.4,3.3-7.1,6.8-7.8c4.2-0.9,7.8,2.8,10.5,6.2C590.3,317.3,601,329.7,610.1,341z"/>
				<path id="XMLID_141_" class="st39" d="M610.1,341c-9-11.4-19.8-23.7-28.8-35.1c-2.7-3.3-6.3-7.1-10.5-6.2
					c-3.5,0.7-5.5,4.4-6.8,7.8c-4.3,11.4-5.6,23.4-5.9,35.6c15.7,11.1,34,16.8,52.9,19.2c-0.2-0.1-0.5-0.2-0.7-0.4
					C608.7,355.2,608.7,347.9,610.1,341z"/>
			</g>
			<path id="XMLID_29_" class="st30" d="M554.4,282.1c2.5,25.3,18.2,48.9,40.6,61c22.4,12,50.8,12.2,73.3,0.3
				c6.2-3.3,12.4-7.9,14.6-14.6c3.6-10.9-4.3-21.7-9.3-32c-5.1-10.3-7.5-21.7-9.6-33c-5-26.4-8.7-53.1-11.2-79.9
				c-13.4-10.9-31.7-8.8-46.8-0.5c-17.1,9.3-30.6,24.6-39.4,42.1C557.9,243,552.5,262.7,554.4,282.1z"/>
			<path id="XMLID_181_" class="st50" d="M673.6,296.8c-5.1-10.3-7.5-21.7-9.6-33c-5-26.4-8.7-53.1-11.2-79.9
				c-1.7-1.4-10.7,0.6-12.6-0.4c13.2,8.6,16.1,80.8,30.7,120.4c2,8,11,21.2,5,29.2c-7.7,8.9-23.5,13.5-34.4,18.4
				c9.3-1.1,18.4-3.9,26.7-8.2c6.2-3.3,12.4-7.9,14.6-14.6C686.5,318,678.7,307.1,673.6,296.8z"/>
			<path id="XMLID_32_" class="st26" d="M640.3,183.6c-18.3,9.5-30.8,29.3-31.4,50c-0.5,15.2,4.7,31.5-2.4,44.9
				c-6.1,11.5-19.4,17.2-27.6,27.2c-12.2,15-11.2,36.8-6.2,55.5c1.7,6.5,3.8,12.9,4,19.6c0.5,16.8-10.9,31.4-15.6,47.6
				c-5.4,18.4-1.5,39.3,10.2,54.5c-17.2-11.2-29.1-31.6-28.8-52.1c0.3-22,12.3-44.6,4.2-65.1c-13.4-33.9-38.8-63.6-46.6-99.2
				c-4-18.4-2.2-38.1,6-55.1s22.9-30.8,40.7-37.1c11.2-4,23.2-5,35.1-5.6c12.3-0.6,24.7-0.9,37-0.9c8.7,0,17.6,0.3,25.8,3.4
				c11.9,4.6,21.2,15.5,23.8,28c2.6,12.5-0.3,24.6-9.5,33.5C658,227.9,651.1,190.5,640.3,183.6z"/>
			<path id="XMLID_34_" class="st26" d="M607.5,225.9c2.7-3,5.6-5.8,8.7-8.3c3.6-3,7.6-5.8,12-7.3c4.5-1.5,9.6-1.5,13.7,0.8
				c-4.4,2.8-9.7,3.2-14.8,4.2C619.5,216.7,613.7,221.1,607.5,225.9z"/>
			<path id="XMLID_35_" class="st26" d="M658.6,213c-1.3-1.3-3.4-0.9-5.2-1.1c-2-0.2-3.9-1.4-5-3.1
				C652.2,208.8,655.7,210.6,658.6,213z"/>
			<path id="XMLID_36_" class="st26" d="M630,259.1c0.2,2.3,0.5,4.8,1.8,6.7c1.3,2,3.9,3.3,6,2.4c2.1-0.8,3.1-3.4,2.9-5.6
				c-0.1-2.3-1.1-4.4-1.9-6.5c-1.3-3.7-1.9-7.6-1.8-11.5c4,0.3,8.1-1.1,11.1-3.8c-4.9,2-13.2-2.5-16.2,0.9
				C628.7,245.6,629.6,254.6,630,259.1z"/>
			<path id="XMLID_38_" class="st26" d="M655.6,255.4c0.1,1.9,0.3,3.8,1.2,5.4s2.6,2.6,4,1.9c1.4-0.7,2.1-2.7,2-4.5
				c-0.1-1.8-0.8-3.5-1.3-5.2c-0.9-2.9-1.3-6-1.2-9.1c2.7,0.3,5.4-0.8,7.4-3c-3.3,1.6-8.8-2-10.8,0.7
				C654.7,244.6,655.3,251.7,655.6,255.4z"/>
			<linearGradient id="XMLID_386_" gradientUnits="userSpaceOnUse" x1="644.9674" y1="273.2871" x2="680.3463" y2="273.2871">
				<stop  offset="0" style="stop-color:#E99767"/>
				<stop  offset="1" style="stop-color:#DB6867"/>
			</linearGradient>
			<path id="XMLID_37_" class="st51" d="M669,261.8c1.9-0.3,3.8-0.7,5.8-0.5c1.9,0.2,3.9,1.1,4.8,2.8c0.5,0.9,0.7,2,0.7,3.1
				c0.1,5.6-3.6,10.6-8.4,13.5c-4.7,2.9-10.4,4-15.9,4.6c-1.5,0.2-3.1,0.3-4.6-0.1c-4.2-1.2-6-6.1-6.4-10.4
				c-0.3-2.8-0.3-5.6,0.2-8.4c0.6-3.8,0.8-3.8,4.5-3.7C656.3,262.6,662.5,262.9,669,261.8z"/>
			<path id="XMLID_145_" class="st2" d="M680.8,266.5c0-0.4-0.1-0.8-0.2-1.2c-0.2-0.8-0.5-1.6-1-2.3c-1.1-1.3-2.8-2.1-4.4-2.3
				c-1.7-0.2-3.3,0-4.8,0.3c-1.5,0.3-3,0.5-4.5,0.7c-2.9,0.3-5.7,0.5-8.1,0.6c-2.4,0.1-4.4,0.1-5.7,0.2c-1.4,0.1-2.2,0.1-2.2,0.1
				s0.8,0,2.2,0.1c1.4,0.1,3.4,0.2,5.7,0.2c2.4,0,5.2,0,8.2-0.3c1.5-0.1,3-0.4,4.6-0.6c1.5-0.3,3.1-0.4,4.6-0.2
				c1.5,0.2,2.9,0.8,3.8,1.9c0.9,1.1,1.1,2.6,1.1,4c-0.1,2.9-1.1,5.5-2.4,7.4c-1.3,2-2.7,3.3-3.8,4.2c-0.5,0.4-1,0.8-1.3,1
				c-0.3,0.2-0.5,0.3-0.5,0.3s0.2-0.1,0.5-0.3c0.3-0.2,0.8-0.5,1.4-0.9c1.1-0.8,2.7-2.1,4.1-4.1c0.7-1,1.4-2.1,1.9-3.4
				c0.5-1.3,0.9-2.8,0.9-4.3l0-0.6C680.8,266.9,680.8,266.7,680.8,266.5z"/>
			<path id="XMLID_39_" class="st41" d="M643,296.9c-2.6-0.1-5.3-0.2-7.7,0.8c-1.8,0.8-3.4,2.2-4.7,3.6c-2.7,3-4.7,6.7-5.2,10.7
				c-0.5,4,0.9,8.3,3.9,10.9c3,2.6,7.3,3.2,11.2,3.3c7.1,0.1,14.3-1.4,20.4-5.1c1.6-1,3.1-2.1,3.9-3.8c0.4-1,0.6-2.2,0.5-3.3
				c-0.1-3.3-1.3-6.4-2.1-9.5c-0.6-2.4,0.1-5.1-0.5-7.3c-0.7-2.9-0.6-2-3.9-1.2C653.7,297.1,648.3,297.2,643,296.9z"/>
			<path id="XMLID_142_" class="st42" d="M625.5,311.8c0,0.1,0,0.2,0,0.3c-0.5,4,0.9,8.3,3.9,10.9c3,2.6,7.3,3.2,11.2,3.3
				c7.1,0.1,14.3-1.4,20.4-5.1c1-0.6,2-1.3,2.8-2.2C652,313.2,638.5,310.2,625.5,311.8z"/>
			<path id="XMLID_175_" class="st2" d="M663.1,301.1c0-1.3,0.1-2.7-0.2-3.9c-0.7-2.9-0.6-2-3.9-1.2c-5.3,1.2-10.6,1.2-16,1
				c-2.6-0.1-5.3-0.2-7.7,0.8c-1.8,0.8-3.4,2.2-4.7,3.6c-0.4,0.4-0.7,0.8-1,1.2C640.7,304.7,652.2,304,663.1,301.1z"/>
			<path id="XMLID_44_" class="st39" d="M319,407c-1.4-4.7-2.9-25.1,1.4-28.3c7-5.1,5.5,11.8,5.9,15.3c1.8,14.5,15.9,18.2,27.1,24.3
				c8.3,4.5,15.8,12.5,17.6,21.9c-10.7-1.2-26.7-10-36.6-15C327.6,421.9,322.4,414.9,319,407z"/>
			<g id="XMLID_169_">
				<path id="XMLID_171_" class="st52" d="M479.9,393.1c-11.6-10.5-22.1-4.8-22.1-4.8c4.3,21.2,15,41.6,30,57.5l10-15.7
					C497.8,430,491.4,403.6,479.9,393.1z"/>
			</g>
			<path id="XMLID_45_" class="st39" d="M329,410.3c0-7.3-3.4-23.5,4-28.1c6.2,8.4,0.8,21.2,8.4,29.1c9.5,9.9,26.6,12.3,28.9,28.9
				c-13.5-0.1-32.8-18.7-40.3-29.3C330.2,410.3,330.6,409.6,329,410.3z"/>
			<path id="XMLID_42_" class="st30" d="M391,447c20.4,27.4,44.1,47,57.2,76c6.8-44.1,17.4-87.6,31.6-129.9
				c14.5,12.2,26.5,25.8,37.2,41.4c-7,46.1-20.1,90.5-43.5,130.8c-3,5.1-6.2,10.3-10.9,13.9c-4.7,3.6-11.2,5.4-16.7,3.1
				c-33-38-51.1-74.7-67.1-116.6c-7.3-2.5-16.8-8.5-24.2-11.7c-7.3-3.2-17.6-5-23.7-9.7c-9.9-7.6-12.8-27.6-19.3-38.7
				c1.5-7.2,3.4-16.2,6.7-22.7c6.6,5.7,4.6,13.8,4.7,21.3c0.1,10.1,20.8,14.8,29.7,17c0.6,0.2,1.3,0.3,1.9,0.5
				C369.2,425.9,382,434.9,391,447z"/>
			<linearGradient id="XMLID_387_" gradientUnits="userSpaceOnUse" x1="344.9822" y1="439.3425" x2="338.3156" y2="388.6758">
				<stop  offset="0" style="stop-color:#E99767"/>
				<stop  offset="0.9947" style="stop-color:#FFDBBA"/>
			</linearGradient>
			<path id="XMLID_43_" class="st53" d="M352.3,445.7c-8.7-4.8-26-10.1-30.7-19.3c-5-9.9,1.4-25.2,1.3-36c9.3-5.4,5.6,22.8,7.8,25.5
				c2.7,3.2,10.7,4,14.5,5.2c5.4,1.7,11,4.4,15.3,8.3c6.2,5.6,6.6,12,8.3,19.6C363.5,449.2,356.8,448.2,352.3,445.7z"/>
			<path id="XMLID_47_" class="st30" d="M675.6,461.6C666.5,497.5,660.8,534,662,571c-22.4,24.5-43.5,48-65.9,72.4
				c-4.9-2.9-13.9,2.4-15.7,7.9c-1.7,5.4,6.5,10.6,8.9,15.7c3.3,7,6.4,10.7,11.7,16.3c4.8,5.1,2.5,16.7,7.8,21.2
				c0.2-10.2,0.1-21.3,0.3-31.6c15.2-12.8,30.3-28.6,45.2-41.7c11.8-10.3,23.8-21,30.4-35.2c5.9-12.5,7.1-26.6,7.9-40.4
				c2.4-40,3.1-66.8,0.4-106.8L675.6,461.6z"/>
			<path id="XMLID_221_" class="st50" d="M693.2,449l-2.2,1.6c-3.7,47.7,3.9,96.8-12,141.5c-6.4,17.9-18.9,32.1-32.1,46.1
				c2.5-2.3,5-4.5,7.5-6.7c11.8-10.3,23.8-21,30.4-35.2c5.9-12.5,7.1-26.6,7.9-40.4C695.1,515.8,695.8,488.9,693.2,449z"/>
			<path id="XMLID_49_" class="st54" d="M621.3,705.9c-11.3,36.3-28.1,69.3-47.4,102c14.8-31.3,21.8-59.7,27.3-93.9
				c6.3-39.5-39.9-72.9-72.1-96.7C559,624.3,603.1,672.6,621.3,705.9z"/>
			<path id="XMLID_113_" class="st55" d="M507.1,226.9c4.9-17.7,16.3-33.5,31.5-43.8c-3.3,4.5-5.6,8.4-8.9,12.9
				c4-3.3,8.7-5.8,13.7-7.4c0.4,1.5,0.8,3,1.2,4.5c8.6-1,17.2-2.1,25.8-3.1c0.1,1.7,0.1,3.3,0.2,5c2.3,1.9,5.8-0.1,7.9-2.3
				c2.1-2.2,4.6-4.9,7.5-4.2c1.8,0.4,3,1.9,4.6,2.8c4.6,2.7,10.3-0.5,14.7-3.6c0.9,2.8,4.8,3.7,7.6,2.5s4.7-3.6,6.8-5.8
				c2.1-2.1,4.8-4.1,7.8-3.8c-14.7,12-26.3,27.8-33.4,45.4c-0.7-5.8,0.1-11.9,2.2-17.3c-4.3,2.7-10.7,0.6-12.7-4
				c-3.2,0-5.9,2.3-8.2,4.5c-2.3,2.2-5.1,4.5-8.2,4.3c-3.2-0.1-5.9-4.4-3.6-6.6c-8.7,0.1-17.5,0.3-26.2,0.4c-0.9-2.6-4.5-3.4-7-2.3
				c-2.5,1.1-4.2,3.5-5.8,5.8c-2.4-2.5-2.3-7,0.4-9.3C517.3,208.9,511.6,217.2,507.1,226.9z"/>
			<path id="XMLID_137_" class="st55" d="M553.4,356.6c-7.3-15.4-14.5-30.7-21.8-46.1c3.7,4.9,8.2,9.2,13.4,12.5
				c-1.9-3.5-2.8-7.5-2.4-11.4c5.4,3.5,12.5,4.1,18.3,1.4c-0.5,3.2,0.1,6.5,1.4,9.4c0.9-12.3,9.9-22.3,18.4-31.3
				c-12.7,8.8-29.3,12-44.3,8.4c0.6,2.9,1.1,5.8,1.7,8.8c-3.3-3.3-6.6-6.6-10-9.8c0.3,3.5,0.7,6.9,1,10.4c-0.2-1.7-7.6-7.3-9-8.9
				c-2.6-3-5.2-6.1-7-9.6C526.9,312.2,540,334.5,553.4,356.6z"/>
			<path id="XMLID_281_" class="st2" d="M633,248.4c0-0.1,0-0.3,0-0.4c-0.1-1.3-1.8-1.2-1.9,0c0,0.4-0.1,0.8,0,1.2
				c0.1,0.5,0.5,0.7,1,0.7c0,0,0.1,0,0.1,0c0.5,0.1,0.9-0.4,1-0.9C633.2,248.8,633.1,248.6,633,248.4z"/>
			<path id="XMLID_284_" class="st2" d="M658.5,245.8c-0.1-0.8-1.5-0.8-1.6,0c-0.1,0.7-0.2,1.4,0.2,2.1c0.3,0.5,0.9,0.5,1.3,0
				C658.7,247.2,658.6,246.5,658.5,245.8z"/>
		</g>
		<g id="XMLID_69_">
			<rect id="XMLID_126_" x="1323.8" y="48.8" class="st10" width="130" height="188.2"/>
			<rect id="XMLID_125_" x="1333.8" y="63.3" class="st56" width="110" height="159.2"/>
			<g id="XMLID_120_">
				<circle id="XMLID_123_" class="st57" cx="1417.3" cy="197.6" r="12.5"/>
				<path id="XMLID_121_" class="st58" d="M1404.8,197.6c0,0-0.1-0.5-0.1-1.3c0-0.4,0-0.9,0.1-1.5c0.1-0.6,0.2-1.2,0.4-1.9
					c0.1-0.4,0.2-0.7,0.4-1.1c0.1-0.4,0.3-0.7,0.5-1.1c0.2-0.4,0.4-0.7,0.6-1.1c0.2-0.4,0.5-0.7,0.8-1.1c0.3-0.4,0.6-0.7,1-1
					c0.3-0.3,0.7-0.6,1.1-0.9c0.8-0.6,1.6-1.1,2.5-1.5c0.5-0.2,0.9-0.3,1.4-0.5c0.5-0.1,0.9-0.3,1.4-0.3c1-0.2,1.9-0.2,2.8-0.2
					c0.9,0,1.8,0.2,2.6,0.4c0.8,0.2,1.5,0.5,2.2,0.9c1.3,0.7,2.2,1.5,2.7,2c0.3,0.3,0.5,0.5,0.6,0.7c0.1,0.2,0.2,0.3,0.2,0.3
					s-0.4-0.3-1.1-0.7c-0.7-0.4-1.7-0.9-2.9-1.3c-0.6-0.2-1.3-0.3-2-0.5c-0.7-0.1-1.5-0.1-2.3-0.1c-0.8,0-1.6,0.1-2.4,0.3
					c-0.4,0.1-0.8,0.2-1.2,0.3c-0.4,0.1-0.8,0.3-1.2,0.4c-0.8,0.3-1.5,0.7-2.2,1.2c-0.7,0.5-1.3,1-1.9,1.6c-0.3,0.3-0.5,0.6-0.8,0.9
					c-0.3,0.3-0.5,0.6-0.7,0.9c-0.2,0.3-0.4,0.6-0.6,0.9c-0.2,0.3-0.4,0.6-0.5,0.9c-0.3,0.6-0.5,1.2-0.7,1.7c-0.2,0.5-0.3,1-0.4,1.3
					C1404.9,197.1,1404.8,197.6,1404.8,197.6z"/>
			</g>
			<rect id="XMLID_118_" x="1351.8" y="77.6" class="st59" width="74" height="7"/>
			<rect id="XMLID_117_" x="1341.3" y="95.6" class="st59" width="93" height="2.5"/>
			<rect id="XMLID_108_" x="1341.3" y="104.3" class="st59" width="93" height="2.5"/>
			<rect id="XMLID_95_" x="1341.3" y="113.1" class="st59" width="93" height="2.5"/>
			<rect id="XMLID_72_" x="1341.3" y="121.8" class="st59" width="93" height="2.5"/>
			<rect id="XMLID_71_" x="1341.3" y="134.6" class="st59" width="93" height="28.3"/>
			<path id="XMLID_495_" class="st59" d="M1373.8,198.7c-3.2-0.1-6.3-0.1-9.4,0c0,0,0-0.1-0.1-0.1c-0.1-0.2-0.4-0.2-0.5-0.1
				c-0.1,0.1-0.1,0.2-0.2,0.2c-0.3,0-0.7,0-1,0c-0.6-0.4-0.9-1.4-1.2-2.1c-0.4-0.7-0.8-2.4-1.6-2.6c-0.1,0-0.1,0-0.2,0
				c0-0.9,0-1.8-0.1-2.6c0-1.8-0.1-4.4-1.2-5.8c-1.1-1.4-5.5-3.9-6.1-0.9c-0.4,1.9,0.2,3.9,0.7,5.7c0.1,0.3,0.2,0.6,0.2,0.9
				c-0.4,0.1-0.7,0.3-1.1,0.5c-1.2,0.7-1.7,2.1-2.3,3.2c-0.7,1.3-1.3,2.7-1.9,4.1c-0.6-0.3-1.1-0.7-1.6-1.1c0.1-1.4,0.2-2.8,0.3-4.2
				c0-1.2-0.2-3.2-1.6-1.5c-0.5,0.6-0.7,1.3-1.2,1.9c-0.3,0.4-0.4,0.6-0.6,0.7c-0.1-0.1-0.1-0.2-0.2-0.2c0.1-0.4,0.3-1.1,0.3-1.5
				c0.3-1.8,0.6-3.7,0.4-5.5c-0.1-1.2-0.8-4.4-2.6-3.1c-2.3,1.7-0.9,6.5,0.1,8.5c0.3,0.7,0.8,1.3,1.3,1.9c0,0.2,0,0.5,0,0.7
				c0,0.3,0.3,0.4,0.5,0.2c0.1-0.1,0.1-0.1,0.2-0.2c0.7,0.8,1.5,1.5,2.3,2.2c0.1,0.1,0.1,0.1,0.2,0.2c-0.2,0.8-0.5,2.1-0.6,3.3
				c-0.8,0.3-1.6,0.6-2.4,1c-0.2,0.1,0,0.4,0.2,0.3c0.7-0.3,1.4-0.6,2.2-0.9c0,0.8,0.1,1.5,0.5,1.9c0.1,0.1,0.3,0.1,0.4,0
				c0.9-0.6,1.4-1.7,1.9-2.7c0.7-0.2,1.4-0.3,2.1-0.5c0.3,0.1,0.5,0.3,0.8,0.4c0.2,0.1,0.3-0.2,0.2-0.3c-0.1-0.1-0.3-0.2-0.4-0.2
				c2.7-0.5,5.6-0.7,8.3-1c1-0.1,2-0.1,2.9-0.2c0.2,0.4,0.5,0.7,0.8,0.9c0.3,0.2,0.5,0.3,0.9,0.1c0.3-0.1,0.5-0.9,0.6-1
				c0,0,0.8,1.6,0.8,1.6c0.2,0.4,0.8,0,0.6-0.3c-0.3-0.5-0.4-1-0.7-1.5c3-0.1,6.1-0.1,9.1-0.2C1374,198.9,1374,198.7,1373.8,198.7z
				 M1342.6,194.1c-0.9-1.2-1.6-2.5-1.9-4.1c-0.1-0.7-0.2-1.5-0.2-2.2c0-1.4,0-1.5,1.2-1.9c1.3-0.5,1.2-0.1,1.4,1
				c0.1,0.4,0.1,0.8,0.2,1.2C1343.4,190.1,1342.8,192.1,1342.6,194.1z M1358.5,197.5C1358.5,197.5,1358.5,197.5,1358.5,197.5
				c-0.1-0.2-0.3-0.2-0.4-0.1c-0.3,0.2-0.5,0.5-0.6,0.8c-0.4-0.1-0.9-0.2-1.4-0.4c-0.4-0.6-0.7-1.3-0.9-2c-0.5-1.3-0.8-2.7-1.1-4
				c0.9-0.3,1.9-0.2,3,0.4c0.8,0.5,1.5,1.2,1.9,2.1C1358.4,194.9,1358.3,196.3,1358.5,197.5z M1356,184.4c2.6,1.5,3,4.3,3,7
				c0,0.6,0,1.3,0,1.9c-1.2-1.8-3.2-2.6-5.2-2.2c-0.2-0.6-0.3-1.2-0.5-1.7C1352.8,187.5,1352.2,182.2,1356,184.4z M1345.1,197
				c-0.5-0.5-1-1.1-1.5-1.6c0.2-0.3,0.5-0.5,0.7-0.8c0.2-0.4,0.7-1.8,1.1-2c1.1-0.5,0.7,1.2,0.7,1.6c-0.1,1.2-0.1,2.3-0.2,3.5
				C1345.6,197.5,1345.3,197.2,1345.1,197z M1346,199.9c0.1-0.5,0.1-0.9,0.2-1.4c0.5,0.4,1,0.7,1.5,0.9c-0.2,0.4-0.4,0.9-0.6,1.3
				c-0.5,0.1-0.9,0.3-1.4,0.4C1345.8,200.7,1346,200.2,1346,199.9z M1346.8,201.5c-0.4,0.8-0.6,1.6-1,0.7c-0.1-0.1-0.1-0.3-0.1-0.5
				c0.4-0.1,0.8-0.3,1.2-0.4C1346.9,201.3,1346.8,201.4,1346.8,201.5z M1348,200.5C1348,200.5,1348,200.4,1348,200.5
				c0.1-0.3,0.2-0.5,0.3-0.7c0.3,0.1,0.6,0.3,0.9,0.4C1348.8,200.3,1348.4,200.4,1348,200.5z M1348.5,199.5c0.7-1.6,1.3-3.2,2.1-4.7
				c0.7-1.2,1.6-2.3,2.8-2.8c0.5,1.9,0.9,3.8,1.7,5.5c0.3,0.6,0.7,1.3,1.4,1.7c-2.3,0.2-4.5,0.5-6.7,0.9
				C1349.3,199.9,1348.9,199.7,1348.5,199.5z M1359.6,198.9c0.7-0.8,0.6-2.4,0.2-3.7c0.4,0.1,0.5,0.8,0.7,1.2
				c0.3,0.6,0.6,1.5,0.9,2.3C1360.8,198.8,1360.2,198.8,1359.6,198.9z"/>
			<rect id="XMLID_70_" x="1340.5" y="207.1" class="st59" width="26.1" height="1.8"/>
		</g>
	</g>
</g>
</svg>
